<svg width="44" height="40" viewBox="0 0 44 40" fill="none" xmlns="http://www.w3.org/2000/svg">
<path d="M31.4628 18.699L31.4614 18.6977L23.3021 10.5396C22.9544 10.1917 22.492 10 22.0001 10C21.5083 10 21.0459 10.1915 20.698 10.5394L12.543 18.6934C12.5402 18.6961 12.5375 18.699 12.5347 18.7018C11.8206 19.42 11.8218 20.5853 12.5383 21.3017C12.8656 21.6292 13.2979 21.8188 13.7601 21.8387C13.7789 21.8405 13.7978 21.8414 13.8169 21.8414H14.1421V27.8453C14.1421 29.0334 15.1089 30 16.2973 30H19.4895C19.813 30 20.0755 29.7377 20.0755 29.4141V24.707C20.0755 24.1649 20.5165 23.7239 21.0587 23.7239H22.9415C23.4837 23.7239 23.9248 24.1649 23.9248 24.707V29.4141C23.9248 29.7377 24.1871 30 24.5108 30H27.7029C28.8914 30 29.8581 29.0334 29.8581 27.8453V21.8414H30.1597C30.6514 21.8414 31.1138 21.6499 31.4618 21.302C32.1791 20.5844 32.1794 19.4171 31.4628 18.699Z" fill="#B5B5B5"/>
</svg>
