<svg width="48" height="48" viewBox="0 0 48 48" fill="none" xmlns="http://www.w3.org/2000/svg">
<path d="M24.0318 28.5033C23.3359 28.5033 22.872 28.0394 22.872 27.3435C22.988 25.8357 23.7998 24.56 24.9596 23.6321C25.6555 22.9362 26.3514 22.2404 26.3514 21.5445C26.3514 20.2687 25.3076 19.2249 24.0318 19.2249C22.756 19.2249 21.7122 20.2687 21.7122 21.5445C21.7122 22.2404 21.2483 22.7043 20.5524 22.7043C19.8565 22.7043 19.3926 22.2404 19.3926 21.5445C19.3926 18.9929 21.4802 16.9053 24.0318 16.9053C26.5833 16.9053 28.671 18.9929 28.671 21.5445C28.555 23.0522 27.7432 24.328 26.5833 25.2558C25.8875 25.9517 25.1916 26.6476 25.1916 27.3435C25.1916 28.0394 24.7277 28.5033 24.0318 28.5033Z" fill="#999794"/>
<path d="M24.0309 31.9827C24.6714 31.9827 25.1907 31.4634 25.1907 30.8229C25.1907 30.1823 24.6714 29.6631 24.0309 29.6631C23.3904 29.6631 22.8711 30.1823 22.8711 30.8229C22.8711 31.4634 23.3904 31.9827 24.0309 31.9827Z" fill="#999794"/>
<path d="M10.5775 38.7091C10.2295 38.4772 10.1136 38.0133 10.1136 37.5493L11.1574 31.6344C6.86612 24.5596 9.18573 15.2812 16.2605 11.1059C23.3353 6.93058 32.6137 9.1342 36.905 16.209C41.1963 23.2838 38.8767 32.5622 31.8019 36.8535C27.1627 39.637 21.2477 39.753 16.6085 36.9694L11.8533 38.9411C11.2734 39.0571 10.9254 38.9411 10.5775 38.7091ZM16.6085 34.5339C16.8404 34.5339 17.0724 34.6498 17.1884 34.7658C23.2193 38.5932 31.106 36.7375 34.8173 30.8225C38.5287 24.9075 36.789 16.9049 30.874 13.1935C24.959 9.48214 17.0724 10.9899 13.245 17.0209C10.5775 21.1961 10.5775 26.6472 13.245 30.8225C13.361 31.0545 13.477 31.4024 13.361 31.6344L12.6651 35.9256L16.0286 34.5339H16.6085Z" fill="#999794"/>
</svg>
