<svg width="44" height="40" viewBox="0 0 44 40" fill="none" xmlns="http://www.w3.org/2000/svg">
<path d="M17.7001 11.1545H25.4186C26.1462 11.1545 26.735 10.5657 26.7387 9.83437V8.95676C26.7387 8.22917 26.1499 7.64035 25.4186 7.6366H17.7001C16.9725 7.6366 16.3837 8.22542 16.3799 8.95676V9.83437C16.3837 10.562 16.9725 11.1508 17.7001 11.1545ZM17.2613 8.95676C17.2613 8.71298 17.4563 8.51796 17.7001 8.51796H25.4186C25.6624 8.51796 25.8574 8.71298 25.8574 8.95676V9.83437C25.8574 10.0782 25.6624 10.2732 25.4186 10.2732H17.7001C17.4563 10.2732 17.2613 10.0782 17.2613 9.83437V8.95676Z" fill="black"/>
<path d="M26.4237 13.3635C26.4237 13.6073 26.6187 13.8023 26.8625 13.8023H29.4428C29.6866 13.8023 29.8816 13.6073 29.8816 13.3635C29.8816 13.1198 29.6866 12.9247 29.4428 12.9247H26.8625C26.6187 12.921 26.4237 13.1198 26.4237 13.3635Z" fill="black"/>
<path d="M29.4391 26.1077H26.8588C26.615 26.1077 26.42 26.3027 26.42 26.5465C26.42 26.7903 26.615 26.9853 26.8588 26.9853H29.4391C29.6829 26.9853 29.8779 26.7903 29.8779 26.5465C29.8816 26.3027 29.6829 26.1077 29.4391 26.1077Z" fill="black"/>
<path d="M33.9584 5H11.9206C10.7092 5 9.72284 5.98262 9.72284 7.19777V30.4769H7.4388C7.19502 30.4769 7 30.672 7 30.9157V32.8397C7 34.0324 7.96762 35 9.16027 35H30.4029C30.4254 35 30.4479 34.9963 30.4704 34.9963C31.6256 34.9175 32.5182 33.9611 32.5219 32.8022V9.52682H35.6873C35.9311 9.52682 36.1261 9.33179 36.1261 9.08801V7.16402C36.1224 5.96762 35.1548 5 33.9584 5ZM9.15652 34.1261C8.44768 34.1261 7.87386 33.5523 7.87386 32.8435V31.3583H28.0926V32.8435C28.0926 33.3048 28.2389 33.7548 28.5164 34.1261H9.15652ZM31.6368 7.24278V32.806C31.6368 33.5336 31.048 34.1224 30.3167 34.1261H30.2529C29.5441 34.1261 28.9702 33.5523 28.9702 32.8435V30.9195C28.9702 30.6757 28.7752 30.4807 28.5314 30.4807H10.6005V7.19777C10.6005 6.47018 11.1893 5.88136 11.9206 5.87761H32.1019C31.8019 6.26766 31.6368 6.74772 31.6368 7.24278ZM35.241 8.64921H32.5144V7.24278C32.5144 6.48894 33.1258 5.88136 33.8759 5.88136H33.9546C34.6635 5.88136 35.2373 6.45518 35.2373 7.16402V8.64921H35.241Z" fill="black"/>
<path d="M12.7982 13.8024H24.1659C24.4097 13.8024 24.6047 13.6073 24.6047 13.3635C24.6047 13.1198 24.4097 12.9247 24.1659 12.9247H12.7982C12.5544 12.9247 12.3594 13.1198 12.3594 13.3635C12.3594 13.6036 12.5544 13.8024 12.7982 13.8024Z" fill="black"/>
<path d="M12.7982 28.7442H20.6517C20.8955 28.7442 21.0905 28.5492 21.0905 28.3054C21.0905 28.0616 20.8955 27.8666 20.6517 27.8666H12.7982C12.5544 27.8666 12.3594 28.0616 12.3594 28.3054C12.3594 28.5492 12.5544 28.7442 12.7982 28.7442Z" fill="black"/>
<path d="M12.3594 26.5464C12.3594 26.7902 12.5544 26.9853 12.7982 26.9853H21.5593C24.2821 26.9853 26.6787 25.1963 27.4625 22.5897H29.4428C29.6866 22.5897 29.8816 22.3947 29.8816 22.1509C29.8816 21.9071 29.6866 21.7121 29.4428 21.7121H27.6538C27.6951 21.4196 27.7176 21.127 27.7176 20.8345C27.7176 19.9231 27.5188 19.023 27.1288 18.1979H29.4428C29.6866 18.1979 29.8816 18.0029 29.8816 17.7591C29.8816 17.5153 29.6866 17.3203 29.4428 17.3203H26.6149C25.4598 15.6701 23.5733 14.6837 21.5593 14.6837H12.7982C12.5544 14.6837 12.3594 14.8787 12.3594 15.1225C12.3594 15.3663 12.5544 15.5613 12.7982 15.5613H18.3827C17.6401 16.0114 17.0025 16.6077 16.5037 17.3203H12.7982C12.5544 17.3203 12.3594 17.5153 12.3594 17.7591C12.3594 18.0029 12.5544 18.1979 12.7982 18.1979H15.9936C15.8586 18.4829 15.7461 18.7755 15.6561 19.0755H12.7982C12.5544 19.0755 12.3594 19.2705 12.3594 19.5143C12.3594 19.7581 12.5544 19.9531 12.7982 19.9531H15.4648C15.3823 20.5344 15.3823 21.127 15.4648 21.7121H12.7982C12.5544 21.7121 12.3594 21.9071 12.3594 22.1509C12.3594 22.3947 12.5544 22.5897 12.7982 22.5897H15.6561C15.7461 22.8897 15.8586 23.186 15.9936 23.4673H12.7982C12.5544 23.4673 12.3594 23.6623 12.3594 23.9061C12.3594 24.1499 12.5544 24.3449 12.7982 24.3449H16.5037C17.0025 25.0538 17.6401 25.6538 18.3827 26.1039H12.7982C12.5544 26.1076 12.3594 26.3027 12.3594 26.5464ZM17.8276 24.5625C15.7648 22.4997 15.7648 19.158 17.8276 17.099C19.8903 15.04 23.232 15.0363 25.291 17.099C27.3538 19.1618 27.3538 22.5034 25.291 24.5625C24.3009 25.5526 22.9582 26.1076 21.5593 26.1076C20.1566 26.1114 18.814 25.5563 17.8276 24.5625Z" fill="black"/>
<path d="M22.4557 23.9661C22.6995 23.9661 22.8982 23.7711 22.8982 23.5311C22.8982 23.4073 22.8495 23.2911 22.7557 23.2048L20.9142 21.4683H21.0305C21.9081 21.4721 22.6807 20.8795 22.8982 20.0244H23.307C23.5508 20.0244 23.7458 19.8294 23.7458 19.5856C23.7458 19.3418 23.5508 19.1468 23.307 19.1468H22.8982C22.8495 18.948 22.767 18.7567 22.6545 18.5842H23.307C23.5508 18.5842 23.7458 18.3892 23.7458 18.1454C23.7458 17.9016 23.5508 17.7066 23.307 17.7066H19.8079C19.5641 17.7066 19.369 17.9016 19.369 18.1454C19.369 18.3892 19.5641 18.5842 19.8079 18.5842H21.0305C21.4243 18.5805 21.7881 18.798 21.9681 19.1468H19.8079C19.5641 19.1468 19.369 19.3418 19.369 19.5856C19.369 19.8294 19.5641 20.0244 19.8079 20.0244H21.9681C21.7881 20.3732 21.4243 20.5907 21.0305 20.587H19.8004H19.7741H19.7553L19.7328 20.5907L19.7141 20.5945L19.6916 20.5982L19.6728 20.6057L19.6503 20.6132L19.6316 20.6207L19.6091 20.632L19.5903 20.6395L19.5716 20.6507C19.5641 20.6545 19.5603 20.6582 19.5566 20.662L19.5378 20.6732L19.5191 20.6882C19.5153 20.692 19.5078 20.6957 19.5041 20.7032L19.4853 20.7182L19.4816 20.722L19.4741 20.7332L19.4628 20.752L19.4516 20.767L19.4403 20.7857L19.4291 20.8045C19.4253 20.812 19.4216 20.8157 19.4178 20.8232C19.4141 20.8307 19.4103 20.8345 19.4066 20.842L19.3991 20.8607L19.3916 20.8795C19.3916 20.887 19.3878 20.8945 19.3841 20.902C19.3803 20.9095 19.3803 20.917 19.3803 20.9208C19.3803 20.9283 19.3766 20.9358 19.3766 20.9433L19.3728 20.9658C19.3728 20.9733 19.3728 20.977 19.3728 20.9845C19.3728 20.992 19.3728 20.9995 19.3728 21.0108C19.3728 21.0183 19.3728 21.0183 19.3728 21.022C19.3728 21.0258 19.3728 21.0258 19.3728 21.0295C19.3728 21.037 19.3728 21.0445 19.3728 21.0558C19.3728 21.0633 19.3728 21.067 19.3728 21.0745L19.3766 21.097L19.3803 21.1195L19.3841 21.1383C19.3841 21.1458 19.3878 21.1533 19.3916 21.1608C19.3953 21.1683 19.3953 21.172 19.3991 21.1795C19.3991 21.187 19.4028 21.1945 19.4066 21.202L19.4178 21.2208L19.4253 21.2395C19.4291 21.247 19.4328 21.2508 19.4366 21.2583L19.4478 21.2771C19.4516 21.2808 19.4553 21.2883 19.4591 21.2921L19.4741 21.3108L19.4853 21.3258L19.5041 21.3446L19.5078 21.3483L22.1556 23.8461C22.2344 23.9211 22.3432 23.9624 22.4557 23.9661Z" fill="black"/>
</svg>
