<svg width="44" height="40" viewBox="0 0 44 40" fill="none" xmlns="http://www.w3.org/2000/svg">
<mask id="path-1-inside-1_312_155" fill="white">
<path d="M24.8125 2C25.2008 2 25.5156 2.31486 25.5156 2.70312V5.6582C26.9711 6.01525 28.3568 6.59273 29.6484 7.37988L31.8682 5.16016C31.9999 5.02839 32.1789 4.95418 32.3652 4.9541C32.5517 4.9541 32.7305 5.02833 32.8623 5.16016L36.8398 9.1377C37.1144 9.41234 37.1144 9.85727 36.8398 10.1318L34.6201 12.3516C35.4072 13.6431 35.9847 15.029 36.3418 16.4844H39.2969C39.6852 16.4844 40 16.7992 40 17.1875V22.8125C40 23.2008 39.6852 23.5156 39.2969 23.5156H36.3418C35.9848 24.971 35.4072 26.3569 34.6201 27.6484L36.8398 29.8682C37.1144 30.1428 37.1144 30.5877 36.8398 30.8623L32.8623 34.8398C32.7305 34.9717 32.5517 35.0459 32.3652 35.0459C32.1788 35.0459 32 34.9716 31.8682 34.8398L29.6484 32.6201C28.3569 33.4072 26.9711 33.9847 25.5156 34.3418V37.2969C25.5156 37.6851 25.2008 38 24.8125 38H19.1875C18.7992 38 18.4844 37.6851 18.4844 37.2969V34.3418C17.0289 33.9847 15.6432 33.4073 14.3516 32.6201L12.1318 34.8398C12.0001 34.9716 11.8211 35.0458 11.6348 35.0459C11.4483 35.0459 11.2695 34.9717 11.1377 34.8398L7.16016 30.8623C6.88559 30.5877 6.88559 30.1427 7.16016 29.8682L9.37988 27.6484C8.5928 26.3569 8.01525 24.971 7.6582 23.5156H4.70312C4.31479 23.5156 4 23.2008 4 22.8125V17.1875C4 16.7992 4.31479 16.4844 4.70312 16.4844H7.6582C8.01525 15.029 8.59266 13.6432 9.37988 12.3516L7.16016 10.1318C6.8856 9.85721 6.88564 9.41227 7.16016 9.1377L11.1377 5.16016C11.2695 5.02832 11.4483 4.9541 11.6348 4.9541C11.8212 4.95414 12 5.02836 12.1318 5.16016L14.3516 7.37988C15.6431 6.5928 17.0289 6.01525 18.4844 5.6582V2.70312C18.4844 2.31486 18.7992 2 19.1875 2H24.8125ZM19.8906 6.2207C19.8906 6.55481 19.6555 6.84341 19.3281 6.91016C17.6576 7.25102 16.0806 7.90725 14.6416 8.86133C14.3629 9.04618 13.9925 9.00905 13.7559 8.77246L11.6348 6.65137L8.65137 9.63477L10.7725 11.7559C11.009 11.9925 11.0462 12.3628 10.8613 12.6416C9.9072 14.0806 9.25096 15.6575 8.91016 17.3281C8.84336 17.6555 8.55483 17.8906 8.2207 17.8906H5.40625V22.1094H8.2207C8.55483 22.1094 8.84336 22.3445 8.91016 22.6719C9.25096 24.3424 9.90713 25.9193 10.8613 27.3584C11.0462 27.6372 11.009 28.0076 10.7725 28.2441L8.65137 30.3652L11.6348 33.3486L13.7559 31.2275C13.9924 30.9911 14.3628 30.954 14.6416 31.1387C16.0806 32.0928 17.6575 32.749 19.3281 33.0898C19.6555 33.1566 19.8906 33.4452 19.8906 33.7793V36.5938H24.1094V33.7793C24.1094 33.4452 24.3445 33.1566 24.6719 33.0898C26.3424 32.749 27.9194 32.0928 29.3584 31.1387C29.6372 30.954 30.0077 30.9911 30.2441 31.2275L32.3652 33.3486L35.3486 30.3652L33.2275 28.2441C32.991 28.0075 32.9538 27.6372 33.1387 27.3584C34.0928 25.9194 34.749 24.3425 35.0898 22.6719C35.1566 22.3445 35.4452 22.1094 35.7793 22.1094H38.5938V17.8906H35.7793C35.4452 17.8906 35.1566 17.6555 35.0898 17.3281C34.749 15.6576 34.0928 14.0807 33.1387 12.6416C32.9538 12.3628 32.991 11.9924 33.2275 11.7559L35.3486 9.63477L32.3652 6.65137L30.2441 8.77246C30.0076 9.00892 29.6372 9.04604 29.3584 8.86133C27.9193 7.90723 26.3425 7.25103 24.6719 6.91016C24.3445 6.84343 24.1094 6.55483 24.1094 6.2207V3.40625H19.8906V6.2207ZM22 9.45312C27.8155 9.45312 32.5469 14.1845 32.5469 20C32.5469 25.8155 27.8155 30.5469 22 30.5469C16.1845 30.5469 11.4531 25.8155 11.4531 20C11.4531 14.1845 16.1845 9.45312 22 9.45312ZM22 10.8594C16.9599 10.8594 12.8594 14.9598 12.8594 20C12.8594 25.0402 16.9599 29.1406 22 29.1406C27.0401 29.1406 31.1406 25.0402 31.1406 20C31.1406 14.9598 27.0401 10.8594 22 10.8594ZM27.6299 21.5928C27.9832 21.4312 28.4002 21.5872 28.5615 21.9404C28.8599 22.5935 28.8052 23.3456 28.415 23.9531C28.0256 24.5593 27.3627 24.9218 26.6416 24.9219H21.5879L21.7939 25.1279C22.0685 25.4026 22.0685 25.8475 21.7939 26.1221C21.5193 26.3966 21.0744 26.3966 20.7998 26.1221L19.3867 24.709C19.1188 24.4336 19.1227 23.9931 19.3936 23.7217L20.7998 22.3154C21.0744 22.0409 21.5194 22.0409 21.7939 22.3154C22.0685 22.5901 22.0685 23.035 21.7939 23.3096L21.5879 23.5156H26.6416C26.8855 23.5155 27.1009 23.398 27.2324 23.1934C27.3647 22.9873 27.3833 22.7433 27.2832 22.5244C27.1219 22.1713 27.2769 21.7542 27.6299 21.5928ZM19.2549 15.4756C19.633 15.3671 20.0248 15.5912 20.1279 15.9688L20.6738 17.8691C20.7807 18.2422 20.5645 18.6312 20.1914 18.7383C19.8208 18.8448 19.4291 18.6327 19.3213 18.2568L19.2412 17.9766L16.7441 22.4717C16.601 22.7295 16.6594 22.9615 16.707 23.0771C16.7905 23.2797 16.955 23.4295 17.1582 23.4883C17.531 23.5961 17.7461 23.9858 17.6387 24.3584C17.5313 24.7298 17.1422 24.9473 16.7676 24.8389C16.1507 24.6605 15.6549 24.2139 15.4072 23.6133C15.162 23.0184 15.2008 22.3528 15.5146 21.7881L18.0117 17.2949L17.7305 17.375C17.3571 17.4819 16.9682 17.2658 16.8613 16.8926C16.7546 16.5195 16.9706 16.1304 17.3438 16.0234L19.2549 15.4756ZM22.1777 12.3564C22.8784 12.4149 23.5013 12.8173 23.8438 13.4336L26.2646 17.792L26.2969 17.6523C26.3845 17.2742 26.7624 17.039 27.1406 17.126C27.5189 17.2134 27.7545 17.5914 27.667 17.9697L27.2451 19.7939C27.2126 20.2362 26.7871 20.5285 26.376 20.4336L24.4385 19.9873C24.0601 19.9 23.8238 19.5219 23.9111 19.1436C23.9986 18.7652 24.3764 18.5288 24.7549 18.6162L25.168 18.7119L22.6143 14.1172C22.4983 13.9085 22.2965 13.7774 22.0605 13.7578C21.8247 13.7378 21.5983 13.8333 21.4551 14.0127C21.213 14.3161 20.7703 14.3662 20.4668 14.124C20.1632 13.8818 20.1135 13.4394 20.3555 13.1357C20.7918 12.5889 21.4735 12.2975 22.1777 12.3564Z"/>
</mask>
<path d="M24.8125 2C25.2008 2 25.5156 2.31486 25.5156 2.70312V5.6582C26.9711 6.01525 28.3568 6.59273 29.6484 7.37988L31.8682 5.16016C31.9999 5.02839 32.1789 4.95418 32.3652 4.9541C32.5517 4.9541 32.7305 5.02833 32.8623 5.16016L36.8398 9.1377C37.1144 9.41234 37.1144 9.85727 36.8398 10.1318L34.6201 12.3516C35.4072 13.6431 35.9847 15.029 36.3418 16.4844H39.2969C39.6852 16.4844 40 16.7992 40 17.1875V22.8125C40 23.2008 39.6852 23.5156 39.2969 23.5156H36.3418C35.9848 24.971 35.4072 26.3569 34.6201 27.6484L36.8398 29.8682C37.1144 30.1428 37.1144 30.5877 36.8398 30.8623L32.8623 34.8398C32.7305 34.9717 32.5517 35.0459 32.3652 35.0459C32.1788 35.0459 32 34.9716 31.8682 34.8398L29.6484 32.6201C28.3569 33.4072 26.9711 33.9847 25.5156 34.3418V37.2969C25.5156 37.6851 25.2008 38 24.8125 38H19.1875C18.7992 38 18.4844 37.6851 18.4844 37.2969V34.3418C17.0289 33.9847 15.6432 33.4073 14.3516 32.6201L12.1318 34.8398C12.0001 34.9716 11.8211 35.0458 11.6348 35.0459C11.4483 35.0459 11.2695 34.9717 11.1377 34.8398L7.16016 30.8623C6.88559 30.5877 6.88559 30.1427 7.16016 29.8682L9.37988 27.6484C8.5928 26.3569 8.01525 24.971 7.6582 23.5156H4.70312C4.31479 23.5156 4 23.2008 4 22.8125V17.1875C4 16.7992 4.31479 16.4844 4.70312 16.4844H7.6582C8.01525 15.029 8.59266 13.6432 9.37988 12.3516L7.16016 10.1318C6.8856 9.85721 6.88564 9.41227 7.16016 9.1377L11.1377 5.16016C11.2695 5.02832 11.4483 4.9541 11.6348 4.9541C11.8212 4.95414 12 5.02836 12.1318 5.16016L14.3516 7.37988C15.6431 6.5928 17.0289 6.01525 18.4844 5.6582V2.70312C18.4844 2.31486 18.7992 2 19.1875 2H24.8125ZM19.8906 6.2207C19.8906 6.55481 19.6555 6.84341 19.3281 6.91016C17.6576 7.25102 16.0806 7.90725 14.6416 8.86133C14.3629 9.04618 13.9925 9.00905 13.7559 8.77246L11.6348 6.65137L8.65137 9.63477L10.7725 11.7559C11.009 11.9925 11.0462 12.3628 10.8613 12.6416C9.9072 14.0806 9.25096 15.6575 8.91016 17.3281C8.84336 17.6555 8.55483 17.8906 8.2207 17.8906H5.40625V22.1094H8.2207C8.55483 22.1094 8.84336 22.3445 8.91016 22.6719C9.25096 24.3424 9.90713 25.9193 10.8613 27.3584C11.0462 27.6372 11.009 28.0076 10.7725 28.2441L8.65137 30.3652L11.6348 33.3486L13.7559 31.2275C13.9924 30.9911 14.3628 30.954 14.6416 31.1387C16.0806 32.0928 17.6575 32.749 19.3281 33.0898C19.6555 33.1566 19.8906 33.4452 19.8906 33.7793V36.5938H24.1094V33.7793C24.1094 33.4452 24.3445 33.1566 24.6719 33.0898C26.3424 32.749 27.9194 32.0928 29.3584 31.1387C29.6372 30.954 30.0077 30.9911 30.2441 31.2275L32.3652 33.3486L35.3486 30.3652L33.2275 28.2441C32.991 28.0075 32.9538 27.6372 33.1387 27.3584C34.0928 25.9194 34.749 24.3425 35.0898 22.6719C35.1566 22.3445 35.4452 22.1094 35.7793 22.1094H38.5938V17.8906H35.7793C35.4452 17.8906 35.1566 17.6555 35.0898 17.3281C34.749 15.6576 34.0928 14.0807 33.1387 12.6416C32.9538 12.3628 32.991 11.9924 33.2275 11.7559L35.3486 9.63477L32.3652 6.65137L30.2441 8.77246C30.0076 9.00892 29.6372 9.04604 29.3584 8.86133C27.9193 7.90723 26.3425 7.25103 24.6719 6.91016C24.3445 6.84343 24.1094 6.55483 24.1094 6.2207V3.40625H19.8906V6.2207ZM22 9.45312C27.8155 9.45312 32.5469 14.1845 32.5469 20C32.5469 25.8155 27.8155 30.5469 22 30.5469C16.1845 30.5469 11.4531 25.8155 11.4531 20C11.4531 14.1845 16.1845 9.45312 22 9.45312ZM22 10.8594C16.9599 10.8594 12.8594 14.9598 12.8594 20C12.8594 25.0402 16.9599 29.1406 22 29.1406C27.0401 29.1406 31.1406 25.0402 31.1406 20C31.1406 14.9598 27.0401 10.8594 22 10.8594ZM27.6299 21.5928C27.9832 21.4312 28.4002 21.5872 28.5615 21.9404C28.8599 22.5935 28.8052 23.3456 28.415 23.9531C28.0256 24.5593 27.3627 24.9218 26.6416 24.9219H21.5879L21.7939 25.1279C22.0685 25.4026 22.0685 25.8475 21.7939 26.1221C21.5193 26.3966 21.0744 26.3966 20.7998 26.1221L19.3867 24.709C19.1188 24.4336 19.1227 23.9931 19.3936 23.7217L20.7998 22.3154C21.0744 22.0409 21.5194 22.0409 21.7939 22.3154C22.0685 22.5901 22.0685 23.035 21.7939 23.3096L21.5879 23.5156H26.6416C26.8855 23.5155 27.1009 23.398 27.2324 23.1934C27.3647 22.9873 27.3833 22.7433 27.2832 22.5244C27.1219 22.1713 27.2769 21.7542 27.6299 21.5928ZM19.2549 15.4756C19.633 15.3671 20.0248 15.5912 20.1279 15.9688L20.6738 17.8691C20.7807 18.2422 20.5645 18.6312 20.1914 18.7383C19.8208 18.8448 19.4291 18.6327 19.3213 18.2568L19.2412 17.9766L16.7441 22.4717C16.601 22.7295 16.6594 22.9615 16.707 23.0771C16.7905 23.2797 16.955 23.4295 17.1582 23.4883C17.531 23.5961 17.7461 23.9858 17.6387 24.3584C17.5313 24.7298 17.1422 24.9473 16.7676 24.8389C16.1507 24.6605 15.6549 24.2139 15.4072 23.6133C15.162 23.0184 15.2008 22.3528 15.5146 21.7881L18.0117 17.2949L17.7305 17.375C17.3571 17.4819 16.9682 17.2658 16.8613 16.8926C16.7546 16.5195 16.9706 16.1304 17.3438 16.0234L19.2549 15.4756ZM22.1777 12.3564C22.8784 12.4149 23.5013 12.8173 23.8438 13.4336L26.2646 17.792L26.2969 17.6523C26.3845 17.2742 26.7624 17.039 27.1406 17.126C27.5189 17.2134 27.7545 17.5914 27.667 17.9697L27.2451 19.7939C27.2126 20.2362 26.7871 20.5285 26.376 20.4336L24.4385 19.9873C24.0601 19.9 23.8238 19.5219 23.9111 19.1436C23.9986 18.7652 24.3764 18.5288 24.7549 18.6162L25.168 18.7119L22.6143 14.1172C22.4983 13.9085 22.2965 13.7774 22.0605 13.7578C21.8247 13.7378 21.5983 13.8333 21.4551 14.0127C21.213 14.3161 20.7703 14.3662 20.4668 14.124C20.1632 13.8818 20.1135 13.4394 20.3555 13.1357C20.7918 12.5889 21.4735 12.2975 22.1777 12.3564Z" fill="black"/>
<path d="M25.5156 5.6582H25.1156V5.97194L25.4203 6.04668L25.5156 5.6582ZM29.6484 7.37988L29.4403 7.72145L29.7089 7.88514L29.9313 7.66273L29.6484 7.37988ZM31.8682 5.16016L32.151 5.443L31.8682 5.16016ZM32.3652 4.9541V4.5541L32.3651 4.5541L32.3652 4.9541ZM32.8623 5.16016L33.1451 4.87731L33.1451 4.8773L32.8623 5.16016ZM36.8398 9.1377L37.1227 8.85489L37.1227 8.85485L36.8398 9.1377ZM34.6201 12.3516L34.3373 12.0687L34.1149 12.2911L34.2785 12.5597L34.6201 12.3516ZM36.3418 16.4844L35.9533 16.5797L36.0281 16.8844H36.3418V16.4844ZM40 17.1875H40.4V17.1875L40 17.1875ZM36.3418 23.5156V23.1156H36.028L35.9533 23.4203L36.3418 23.5156ZM34.6201 27.6484L34.2785 27.4403L34.1149 27.7089L34.3373 27.9313L34.6201 27.6484ZM36.8398 29.8682L37.1227 29.5854L37.1227 29.5853L36.8398 29.8682ZM36.8398 30.8623L37.1227 31.1451L37.1227 31.1451L36.8398 30.8623ZM32.3652 35.0459L32.3651 35.4459H32.3652V35.0459ZM29.6484 32.6201L29.9313 32.3373L29.7089 32.1149L29.4403 32.2785L29.6484 32.6201ZM25.5156 34.3418L25.4203 33.9533L25.1156 34.0281V34.3418H25.5156ZM18.4844 34.3418H18.8844V34.0281L18.5797 33.9533L18.4844 34.3418ZM14.3516 32.6201L14.5597 32.2785L14.2911 32.1149L14.0687 32.3373L14.3516 32.6201ZM12.1318 34.8398L11.849 34.557L11.849 34.557L12.1318 34.8398ZM11.6348 35.0459V35.4459H11.6349L11.6348 35.0459ZM11.1377 34.8398L10.8549 35.1227L10.8549 35.1227L11.1377 34.8398ZM7.16016 30.8623L6.87728 31.1451L6.87731 31.1451L7.16016 30.8623ZM7.16016 29.8682L6.87731 29.5853H6.87731L7.16016 29.8682ZM9.37988 27.6484L9.66273 27.9313L9.88513 27.7089L9.72146 27.4403L9.37988 27.6484ZM7.6582 23.5156L8.04668 23.4203L7.97193 23.1156H7.6582V23.5156ZM7.6582 16.4844V16.8844H7.97193L8.04668 16.5797L7.6582 16.4844ZM9.37988 12.3516L9.72144 12.5597L9.88515 12.2911L9.66273 12.0687L9.37988 12.3516ZM7.16016 10.1318L6.87728 10.4146L6.87731 10.4147L7.16016 10.1318ZM7.16016 9.1377L6.87731 8.85485L6.87729 8.85488L7.16016 9.1377ZM11.6348 4.9541L11.6349 4.5541H11.6348V4.9541ZM12.1318 5.16016L12.4147 4.87731V4.87731L12.1318 5.16016ZM14.3516 7.37988L14.0687 7.66273L14.2911 7.88514L14.5597 7.72145L14.3516 7.37988ZM18.4844 5.6582L18.5797 6.04668L18.8844 5.97194V5.6582H18.4844ZM19.3281 6.91016L19.2482 6.51822L19.2482 6.51823L19.3281 6.91016ZM14.6416 8.86133L14.4206 8.52794L14.4205 8.52798L14.6416 8.86133ZM13.7559 8.77246L13.473 9.0553L13.473 9.05531L13.7559 8.77246ZM11.6348 6.65137L11.9176 6.36852L11.6348 6.08568L11.3519 6.36852L11.6348 6.65137ZM8.65137 9.63477L8.36852 9.35192L8.08568 9.63477L8.36852 9.91761L8.65137 9.63477ZM10.7725 11.7559L11.0553 11.4731L11.0553 11.473L10.7725 11.7559ZM10.8613 12.6416L10.528 12.4206L10.528 12.4206L10.8613 12.6416ZM8.91016 17.3281L9.30208 17.4081L9.30208 17.4081L8.91016 17.3281ZM5.40625 17.8906V17.4906H5.00625V17.8906H5.40625ZM5.40625 22.1094H5.00625V22.5094H5.40625V22.1094ZM8.91016 22.6719L9.30208 22.5919L9.30208 22.5919L8.91016 22.6719ZM10.8613 27.3584L11.1947 27.1374L11.1947 27.1374L10.8613 27.3584ZM10.7725 28.2441L10.4896 27.9613H10.4896L10.7725 28.2441ZM8.65137 30.3652L8.36852 30.0824L8.08568 30.3652L8.36852 30.6481L8.65137 30.3652ZM11.6348 33.3486L11.3519 33.6315L11.6348 33.9143L11.9176 33.6315L11.6348 33.3486ZM13.7559 31.2275L13.4731 30.9447L13.473 30.9447L13.7559 31.2275ZM14.6416 31.1387L14.8626 30.8053L14.8625 30.8052L14.6416 31.1387ZM19.3281 33.0898L19.2482 33.4818L19.2482 33.4818L19.3281 33.0898ZM19.8906 36.5938H19.4906V36.9938H19.8906V36.5938ZM24.1094 36.5938V36.9938H24.5094V36.5938H24.1094ZM24.6719 33.0898L24.7518 33.4818L24.7518 33.4818L24.6719 33.0898ZM29.3584 31.1387L29.1375 30.8052L29.1374 30.8053L29.3584 31.1387ZM30.2441 31.2275L30.527 30.9447L30.527 30.9447L30.2441 31.2275ZM32.3652 33.3486L32.0824 33.6315L32.3652 33.9143L32.6481 33.6315L32.3652 33.3486ZM35.3486 30.3652L35.6315 30.6481L35.9143 30.3652L35.6315 30.0824L35.3486 30.3652ZM33.2275 28.2441L32.9447 28.5269L32.9447 28.527L33.2275 28.2441ZM33.1387 27.3584L33.472 27.5794L33.472 27.5794L33.1387 27.3584ZM35.0898 22.6719L34.6979 22.5919L34.6979 22.5919L35.0898 22.6719ZM38.5938 22.1094V22.5094H38.9938V22.1094H38.5938ZM38.5938 17.8906H38.9938V17.4906H38.5938V17.8906ZM35.0898 17.3281L34.6979 17.4081L34.6979 17.4081L35.0898 17.3281ZM33.1387 12.6416L32.8053 12.8626V12.8626L33.1387 12.6416ZM33.2275 11.7559L32.9447 11.473V11.473L33.2275 11.7559ZM35.3486 9.63477L35.6315 9.91761L35.9143 9.63477L35.6315 9.35192L35.3486 9.63477ZM32.3652 6.65137L32.6481 6.36852L32.3652 6.08568L32.0824 6.36852L32.3652 6.65137ZM30.2441 8.77246L30.5269 9.05535L30.527 9.0553L30.2441 8.77246ZM29.3584 8.86133L29.1374 9.19471L29.1375 9.19478L29.3584 8.86133ZM24.6719 6.91016L24.7518 6.51823L24.7518 6.51821L24.6719 6.91016ZM24.1094 3.40625H24.5094V3.00625H24.1094V3.40625ZM19.8906 3.40625V3.00625H19.4906V3.40625H19.8906ZM27.6299 21.5928L27.4635 21.229L27.4635 21.229L27.6299 21.5928ZM28.5615 21.9404L28.1977 22.1067L28.1977 22.1067L28.5615 21.9404ZM28.415 23.9531L28.7516 24.1693L28.7516 24.1693L28.415 23.9531ZM26.6416 24.9219V25.3219H26.6417L26.6416 24.9219ZM21.5879 24.9219V24.5219H20.6222L21.305 25.2047L21.5879 24.9219ZM21.7939 25.1279L22.0768 24.8451L22.0768 24.8451L21.7939 25.1279ZM21.7939 26.1221L22.0767 26.405L22.0768 26.4049L21.7939 26.1221ZM20.7998 26.1221L20.517 26.4049L20.517 26.405L20.7998 26.1221ZM19.3867 24.709L19.1 24.9879L19.1039 24.9918L19.3867 24.709ZM19.3936 23.7217L19.1107 23.4388L19.1104 23.4391L19.3936 23.7217ZM20.7998 22.3154L20.517 22.0325L20.517 22.0326L20.7998 22.3154ZM21.7939 22.3154L22.0768 22.0326L22.0767 22.0325L21.7939 22.3154ZM21.7939 23.3096L21.5111 23.0267V23.0267L21.7939 23.3096ZM21.5879 23.5156L21.305 23.2328L20.6222 23.9156H21.5879V23.5156ZM26.6416 23.5156V23.9156H26.6417L26.6416 23.5156ZM27.2324 23.1934L27.5689 23.4096L27.569 23.4094L27.2324 23.1934ZM27.2832 22.5244L26.9194 22.6906L26.9194 22.6908L27.2832 22.5244ZM19.2549 15.4756L19.3651 15.8601L19.3652 15.8601L19.2549 15.4756ZM20.1279 15.9688L19.742 16.0742L19.7435 16.0792L20.1279 15.9688ZM20.6738 17.8691L21.0584 17.759L21.0583 17.7587L20.6738 17.8691ZM20.1914 18.7383L20.0811 18.3538L20.0809 18.3538L20.1914 18.7383ZM19.3213 18.2568L18.9367 18.3667L18.9368 18.3671L19.3213 18.2568ZM19.2412 17.9766L19.6258 17.8667L19.3605 16.9381L18.8915 17.7823L19.2412 17.9766ZM16.7441 22.4717L16.3945 22.2774L16.3944 22.2775L16.7441 22.4717ZM16.707 23.0771L17.0769 22.9248L17.0769 22.9248L16.707 23.0771ZM17.1582 23.4883L17.0471 23.8725L17.0471 23.8725L17.1582 23.4883ZM17.6387 24.3584L18.0229 24.4695L18.023 24.4692L17.6387 24.3584ZM16.7676 24.8389L16.8788 24.4546L16.8787 24.4546L16.7676 24.8389ZM15.4072 23.6133L15.0374 23.7657L15.0374 23.7658L15.4072 23.6133ZM15.5146 21.7881L15.8643 21.9824L15.8643 21.9824L15.5146 21.7881ZM18.0117 17.2949L18.3614 17.4892L18.8299 16.6461L17.9022 16.9102L18.0117 17.2949ZM17.7305 17.375L17.6209 16.9903L17.6204 16.9904L17.7305 17.375ZM16.8613 16.8926L16.4767 17.0026L16.4768 17.0027L16.8613 16.8926ZM17.3438 16.0234L17.4539 16.408L17.454 16.408L17.3438 16.0234ZM22.1777 12.3564L22.1443 12.755L22.1445 12.7551L22.1777 12.3564ZM23.8438 13.4336L24.1934 13.2394L24.1934 13.2393L23.8438 13.4336ZM26.2646 17.792L25.915 17.9862L26.4204 18.8961L26.6544 17.8819L26.2646 17.792ZM26.2969 17.6523L25.9072 17.562L25.9071 17.5624L26.2969 17.6523ZM27.1406 17.126L27.2307 16.7363L27.2303 16.7362L27.1406 17.126ZM27.667 17.9697L28.0567 18.0599L28.0567 18.0598L27.667 17.9697ZM27.2451 19.7939L26.8554 19.7038L26.8485 19.7339L26.8462 19.7646L27.2451 19.7939ZM26.376 20.4336L26.466 20.0438L26.4658 20.0438L26.376 20.4336ZM24.4385 19.9873L24.3485 20.3771L24.3487 20.3771L24.4385 19.9873ZM23.9111 19.1436L23.5214 19.0535L23.5214 19.0536L23.9111 19.1436ZM24.7549 18.6162L24.8452 18.2265L24.8449 18.2265L24.7549 18.6162ZM25.168 18.7119L25.0777 19.1016L25.9552 19.3049L25.5176 18.5176L25.168 18.7119ZM22.6143 14.1172L22.2646 14.3115L22.2646 14.3115L22.6143 14.1172ZM22.0605 13.7578L22.0268 14.1564L22.0274 14.1564L22.0605 13.7578ZM21.4551 14.0127L21.1425 13.7632L21.1424 13.7632L21.4551 14.0127ZM20.4668 14.124L20.2173 14.4367L20.2174 14.4367L20.4668 14.124ZM20.3555 13.1357L20.0428 12.8863L20.0427 12.8864L20.3555 13.1357ZM24.8125 2V2.4C24.9799 2.4 25.1156 2.53575 25.1156 2.70312H25.5156H25.9156C25.9156 2.09397 25.4218 1.6 24.8125 1.6V2ZM25.5156 2.70312H25.1156V5.6582H25.5156H25.9156V2.70312H25.5156ZM25.5156 5.6582L25.4203 6.04668C26.8356 6.39386 28.1833 6.9554 29.4403 7.72145L29.6484 7.37988L29.8566 7.03831C28.5303 6.23007 27.1066 5.63664 25.6109 5.26972L25.5156 5.6582ZM29.6484 7.37988L29.9313 7.66273L32.151 5.443L31.8682 5.16016L31.5853 4.87731L29.3656 7.09704L29.6484 7.37988ZM31.8682 5.16016L32.151 5.443C32.2078 5.38617 32.2851 5.35414 32.3654 5.3541L32.3652 4.9541L32.3651 4.5541C32.0726 4.55423 31.792 4.67062 31.5853 4.87731L31.8682 5.16016ZM32.3652 4.9541V5.3541C32.4454 5.3541 32.5225 5.38601 32.5795 5.44301L32.8623 5.16016L33.1451 4.8773C32.9385 4.67065 32.658 4.5541 32.3652 4.5541V4.9541ZM32.8623 5.16016L32.5795 5.443L36.557 9.42054L36.8398 9.1377L37.1227 8.85485L33.1451 4.87731L32.8623 5.16016ZM36.8398 9.1377L36.557 9.4205C36.6754 9.53896 36.6753 9.73065 36.557 9.84899L36.8398 10.1318L37.1227 10.4147C37.5535 9.98388 37.5534 9.28571 37.1227 8.85489L36.8398 9.1377ZM36.8398 10.1318L36.557 9.84899L34.3373 12.0687L34.6201 12.3516L34.903 12.6344L37.1227 10.4147L36.8398 10.1318ZM34.6201 12.3516L34.2785 12.5597C35.0445 13.8167 35.6061 15.1645 35.9533 16.5797L36.3418 16.4844L36.7303 16.3891C36.3634 14.8934 35.7699 13.4696 34.9617 12.1434L34.6201 12.3516ZM36.3418 16.4844V16.8844H39.2969V16.4844V16.0844H36.3418V16.4844ZM39.2969 16.4844V16.8844C39.4642 16.8844 39.6 17.0201 39.6 17.1875L40 17.1875L40.4 17.1875C40.3999 16.5783 39.9061 16.0844 39.2969 16.0844V16.4844ZM40 17.1875H39.6V22.8125H40H40.4V17.1875H40ZM40 22.8125H39.6C39.6 22.9799 39.4643 23.1156 39.2969 23.1156V23.5156V23.9156C39.9062 23.9156 40.4 23.4217 40.4 22.8125H40ZM39.2969 23.5156V23.1156H36.3418V23.5156V23.9156H39.2969V23.5156ZM36.3418 23.5156L35.9533 23.4203C35.6062 24.8355 35.0445 26.1833 34.2785 27.4403L34.6201 27.6484L34.9617 27.8566C35.7699 26.5304 36.3634 25.1066 36.7303 23.6109L36.3418 23.5156ZM34.6201 27.6484L34.3373 27.9313L36.557 30.151L36.8398 29.8682L37.1227 29.5853L34.903 27.3656L34.6201 27.6484ZM36.8398 29.8682L36.557 30.151C36.6753 30.2694 36.6753 30.4611 36.557 30.5795L36.8398 30.8623L37.1227 31.1451C37.5534 30.7143 37.5534 30.0162 37.1227 29.5854L36.8398 29.8682ZM36.8398 30.8623L36.557 30.5795L32.5795 34.557L32.8623 34.8398L33.1451 35.1227L37.1227 31.1451L36.8398 30.8623ZM32.8623 34.8398L32.5795 34.557C32.5225 34.614 32.4454 34.6459 32.3652 34.6459V35.0459V35.4459C32.658 35.4459 32.9385 35.3294 33.1451 35.1227L32.8623 34.8398ZM32.3652 35.0459L32.3653 34.6459C32.2851 34.6459 32.2079 34.6139 32.151 34.557L31.8682 34.8398L31.5853 35.1227C31.792 35.3294 32.0725 35.4458 32.3651 35.4459L32.3652 35.0459ZM31.8682 34.8398L32.151 34.557L29.9313 32.3373L29.6484 32.6201L29.3656 32.903L31.5853 35.1227L31.8682 34.8398ZM29.6484 32.6201L29.4403 32.2785C28.1834 33.0445 26.8356 33.6061 25.4203 33.9533L25.5156 34.3418L25.6109 34.7303C27.1066 34.3634 28.5305 33.7699 29.8566 32.9617L29.6484 32.6201ZM25.5156 34.3418H25.1156V37.2969H25.5156H25.9156V34.3418H25.5156ZM25.5156 37.2969H25.1156C25.1156 37.4643 24.9799 37.6 24.8125 37.6V38V38.4C25.4218 38.4 25.9156 37.906 25.9156 37.2969H25.5156ZM24.8125 38V37.6H19.1875V38V38.4H24.8125V38ZM19.1875 38V37.6C19.0201 37.6 18.8844 37.4643 18.8844 37.2969H18.4844H18.0844C18.0844 37.906 18.5782 38.4 19.1875 38.4V38ZM18.4844 37.2969H18.8844V34.3418H18.4844H18.0844V37.2969H18.4844ZM18.4844 34.3418L18.5797 33.9533C17.1644 33.6061 15.8167 33.0446 14.5597 32.2785L14.3516 32.6201L14.1434 32.9617C15.4697 33.7699 16.8934 34.3634 18.3891 34.7303L18.4844 34.3418ZM14.3516 32.6201L14.0687 32.3373L11.849 34.557L12.1318 34.8398L12.4147 35.1227L14.6344 32.903L14.3516 32.6201ZM12.1318 34.8398L11.849 34.557C11.7922 34.6138 11.7149 34.6459 11.6346 34.6459L11.6348 35.0459L11.6349 35.4459C11.9274 35.4458 12.208 35.3294 12.4147 35.1227L12.1318 34.8398ZM11.6348 35.0459V34.6459C11.5546 34.6459 11.4775 34.614 11.4205 34.557L11.1377 34.8398L10.8549 35.1227C11.0615 35.3293 11.342 35.4459 11.6348 35.4459V35.0459ZM11.1377 34.8398L11.4205 34.557L7.443 30.5795L7.16016 30.8623L6.87731 31.1451L10.8549 35.1227L11.1377 34.8398ZM7.16016 30.8623L7.44304 30.5795C7.32461 30.461 7.32466 30.2693 7.443 30.151L7.16016 29.8682L6.87731 29.5853C6.44651 30.0161 6.44657 30.7143 6.87728 31.1451L7.16016 30.8623ZM7.16016 29.8682L7.443 30.151L9.66273 27.9313L9.37988 27.6484L9.09704 27.3656L6.87731 29.5853L7.16016 29.8682ZM9.37988 27.6484L9.72146 27.4403C8.95547 26.1833 8.39386 24.8355 8.04668 23.4203L7.6582 23.5156L7.26972 23.6109C7.63664 25.1066 8.23014 26.5304 9.03831 27.8566L9.37988 27.6484ZM7.6582 23.5156V23.1156H4.70312V23.5156V23.9156H7.6582V23.5156ZM4.70312 23.5156V23.1156C4.53573 23.1156 4.4 22.9799 4.4 22.8125H4H3.6C3.6 23.4217 4.09385 23.9156 4.70312 23.9156V23.5156ZM4 22.8125H4.4V17.1875H4H3.6V22.8125H4ZM4 17.1875H4.4C4.4 17.0201 4.53573 16.8844 4.70312 16.8844V16.4844V16.0844C4.09385 16.0844 3.6 16.5783 3.6 17.1875H4ZM4.70312 16.4844V16.8844H7.6582V16.4844V16.0844H4.70312V16.4844ZM7.6582 16.4844L8.04668 16.5797C8.39387 15.1645 8.95534 13.8167 9.72144 12.5597L9.37988 12.3516L9.03832 12.1434C8.22999 13.4697 7.63663 14.8935 7.26972 16.3891L7.6582 16.4844ZM9.37988 12.3516L9.66273 12.0687L7.443 9.84899L7.16016 10.1318L6.87731 10.4147L9.09704 12.6344L9.37988 12.3516ZM7.16016 10.1318L7.44304 9.84903C7.32465 9.73062 7.32467 9.53889 7.44303 9.42051L7.16016 9.1377L6.87729 8.85488C6.4466 9.28565 6.44655 9.98381 6.87728 10.4146L7.16016 10.1318ZM7.16016 9.1377L7.443 9.42054L11.4205 5.443L11.1377 5.16016L10.8549 4.87731L6.87731 8.85485L7.16016 9.1377ZM11.1377 5.16016L11.4205 5.443C11.4775 5.38601 11.5546 5.3541 11.6348 5.3541V4.9541V4.5541C11.342 4.5541 11.0615 4.67063 10.8549 4.87731L11.1377 5.16016ZM11.6348 4.9541L11.6347 5.3541C11.7149 5.35412 11.7921 5.38609 11.849 5.443L12.1318 5.16016L12.4147 4.87731C12.208 4.67063 11.9275 4.55417 11.6349 4.5541L11.6348 4.9541ZM12.1318 5.16016L11.849 5.443L14.0687 7.66273L14.3516 7.37988L14.6344 7.09704L12.4147 4.87731L12.1318 5.16016ZM14.3516 7.37988L14.5597 7.72145C15.8166 6.95547 17.1644 6.39386 18.5797 6.04668L18.4844 5.6582L18.3891 5.26972C16.8934 5.63664 15.4695 6.23014 14.1434 7.03831L14.3516 7.37988ZM18.4844 5.6582H18.8844V2.70312H18.4844H18.0844V5.6582H18.4844ZM18.4844 2.70312H18.8844C18.8844 2.53575 19.0201 2.4 19.1875 2.4V2V1.6C18.5782 1.6 18.0844 2.09397 18.0844 2.70312H18.4844ZM19.1875 2V2.4H24.8125V2V1.6H19.1875V2ZM19.8906 6.2207H19.4906C19.4906 6.36516 19.3888 6.48955 19.2482 6.51822L19.3281 6.91016L19.408 7.30209C19.9221 7.19727 20.2906 6.74446 20.2906 6.2207H19.8906ZM19.3281 6.91016L19.2482 6.51823C17.5267 6.86949 15.9019 7.5458 14.4206 8.52794L14.6416 8.86133L14.8626 9.19471C16.2594 8.26869 17.7885 7.63255 19.4081 7.30208L19.3281 6.91016ZM14.6416 8.86133L14.4205 8.52798C14.3005 8.60761 14.1408 8.59168 14.0387 8.48961L13.7559 8.77246L13.473 9.05531C13.8442 9.42642 14.4253 9.48474 14.8627 9.19468L14.6416 8.86133ZM13.7559 8.77246L14.0387 8.48962L11.9176 6.36852L11.6348 6.65137L11.3519 6.93421L13.473 9.0553L13.7559 8.77246ZM11.6348 6.65137L11.3519 6.36852L8.36852 9.35192L8.65137 9.63477L8.93421 9.91761L11.9176 6.93421L11.6348 6.65137ZM8.65137 9.63477L8.36852 9.91761L10.4896 12.0387L10.7725 11.7559L11.0553 11.473L8.93421 9.35192L8.65137 9.63477ZM10.7725 11.7559L10.4896 12.0387C10.5917 12.1408 10.6076 12.3004 10.528 12.4206L10.8613 12.6416L11.1947 12.8626C11.4848 12.4252 11.4263 11.8442 11.0553 11.4731L10.7725 11.7559ZM10.8613 12.6416L10.528 12.4206C9.54576 13.9019 8.86942 15.5266 8.51823 17.2482L8.91016 17.3281L9.30208 17.4081C9.63249 15.7884 10.2686 14.2593 11.1947 12.8626L10.8613 12.6416ZM8.91016 17.3281L8.51823 17.2482C8.48952 17.3889 8.36515 17.4906 8.2207 17.4906V17.8906V18.2906C8.74451 18.2906 9.1972 17.9221 9.30208 17.4081L8.91016 17.3281ZM8.2207 17.8906V17.4906H5.40625V17.8906V18.2906H8.2207V17.8906ZM5.40625 17.8906H5.00625V22.1094H5.40625H5.80625V17.8906H5.40625ZM5.40625 22.1094V22.5094H8.2207V22.1094V21.7094H5.40625V22.1094ZM8.2207 22.1094V22.5094C8.36515 22.5094 8.48952 22.6111 8.51823 22.7518L8.91016 22.6719L9.30208 22.5919C9.1972 22.0779 8.74451 21.7094 8.2207 21.7094V22.1094ZM8.91016 22.6719L8.51823 22.7518C8.86942 24.4733 9.54568 26.098 10.528 27.5794L10.8613 27.3584L11.1947 27.1374C10.2686 25.7406 9.6325 24.2115 9.30208 22.5919L8.91016 22.6719ZM10.8613 27.3584L10.528 27.5794C10.6076 27.6996 10.5916 27.8593 10.4896 27.9613L10.7725 28.2441L11.0553 28.527C11.4264 28.1559 11.4847 27.5748 11.1947 27.1374L10.8613 27.3584ZM10.7725 28.2441L10.4896 27.9613L8.36852 30.0824L8.65137 30.3652L8.93421 30.6481L11.0553 28.527L10.7725 28.2441ZM8.65137 30.3652L8.36852 30.6481L11.3519 33.6315L11.6348 33.3486L11.9176 33.0658L8.93421 30.0824L8.65137 30.3652ZM11.6348 33.3486L11.9176 33.6315L14.0387 31.5104L13.7559 31.2275L13.473 30.9447L11.3519 33.0658L11.6348 33.3486ZM13.7559 31.2275L14.0387 31.5104C14.1406 31.4085 14.3004 31.3924 14.4207 31.4721L14.6416 31.1387L14.8625 30.8052C14.4252 30.5155 13.8442 30.5737 13.4731 30.9447L13.7559 31.2275ZM14.6416 31.1387L14.4206 31.4721C15.9019 32.4542 17.5266 33.1305 19.2482 33.4818L19.3281 33.0898L19.4081 32.6979C17.7884 32.3674 16.2594 31.7313 14.8626 30.8053L14.6416 31.1387ZM19.3281 33.0898L19.2482 33.4818C19.3888 33.5104 19.4906 33.6348 19.4906 33.7793H19.8906H20.2906C20.2906 33.2556 19.9222 32.8027 19.408 32.6979L19.3281 33.0898ZM19.8906 33.7793H19.4906V36.5938H19.8906H20.2906V33.7793H19.8906ZM19.8906 36.5938V36.9938H24.1094V36.5938V36.1937H19.8906V36.5938ZM24.1094 36.5938H24.5094V33.7793H24.1094H23.7094V36.5938H24.1094ZM24.1094 33.7793H24.5094C24.5094 33.6348 24.6112 33.5105 24.7518 33.4818L24.6719 33.0898L24.592 32.6979C24.0779 32.8027 23.7094 33.2555 23.7094 33.7793H24.1094ZM24.6719 33.0898L24.7518 33.4818C26.4733 33.1305 28.0981 32.4542 29.5794 31.4721L29.3584 31.1387L29.1374 30.8053C27.7406 31.7313 26.2115 32.3674 24.5919 32.6979L24.6719 33.0898ZM29.3584 31.1387L29.5793 31.4721C29.6996 31.3924 29.8594 31.4085 29.9613 31.5104L30.2441 31.2275L30.527 30.9447C30.1559 30.5737 29.5748 30.5155 29.1375 30.8052L29.3584 31.1387ZM30.2441 31.2275L29.9613 31.5104L32.0824 33.6315L32.3652 33.3486L32.6481 33.0658L30.527 30.9447L30.2441 31.2275ZM32.3652 33.3486L32.6481 33.6315L35.6315 30.6481L35.3486 30.3652L35.0658 30.0824L32.0824 33.0658L32.3652 33.3486ZM35.3486 30.3652L35.6315 30.0824L33.5104 27.9613L33.2275 28.2441L32.9447 28.527L35.0658 30.6481L35.3486 30.3652ZM33.2275 28.2441L33.5104 27.9613C33.4083 27.8592 33.3924 27.6996 33.472 27.5794L33.1387 27.3584L32.8053 27.1374C32.5152 27.5748 32.5737 28.1558 32.9447 28.5269L33.2275 28.2441ZM33.1387 27.3584L33.472 27.5794C34.4542 26.0981 35.1306 24.4734 35.4818 22.7518L35.0898 22.6719L34.6979 22.5919C34.3675 24.2116 33.7314 25.7407 32.8053 27.1374L33.1387 27.3584ZM35.0898 22.6719L35.4818 22.7518C35.5105 22.6111 35.6349 22.5094 35.7793 22.5094V22.1094V21.7094C35.2555 21.7094 34.8028 22.0779 34.6979 22.5919L35.0898 22.6719ZM35.7793 22.1094V22.5094H38.5938V22.1094V21.7094H35.7793V22.1094ZM38.5938 22.1094H38.9938V17.8906H38.5938H38.1937V22.1094H38.5938ZM38.5938 17.8906V17.4906H35.7793V17.8906V18.2906H38.5938V17.8906ZM35.7793 17.8906V17.4906C35.6349 17.4906 35.5105 17.3889 35.4818 17.2481L35.0898 17.3281L34.6979 17.4081C34.8028 17.9221 35.2555 18.2906 35.7793 18.2906V17.8906ZM35.0898 17.3281L35.4818 17.2482C35.1306 15.5267 34.4543 13.902 33.472 12.4206L33.1387 12.6416L32.8053 12.8626C33.7314 14.2594 34.3675 15.7885 34.6979 17.4081L35.0898 17.3281ZM33.1387 12.6416L33.472 12.4206C33.3924 12.3004 33.4084 12.1407 33.5104 12.0387L33.2275 11.7559L32.9447 11.473C32.5736 11.8441 32.5153 12.4252 32.8053 12.8626L33.1387 12.6416ZM33.2275 11.7559L33.5104 12.0387L35.6315 9.91761L35.3486 9.63477L35.0658 9.35192L32.9447 11.473L33.2275 11.7559ZM35.3486 9.63477L35.6315 9.35192L32.6481 6.36852L32.3652 6.65137L32.0824 6.93421L35.0658 9.91761L35.3486 9.63477ZM32.3652 6.65137L32.0824 6.36852L29.9613 8.48962L30.2441 8.77246L30.527 9.0553L32.6481 6.93421L32.3652 6.65137ZM30.2441 8.77246L29.9613 8.48958C29.8594 8.59151 29.6996 8.60756 29.5793 8.52788L29.3584 8.86133L29.1375 9.19478C29.5748 9.48452 30.1558 9.42634 30.5269 9.05535L30.2441 8.77246ZM29.3584 8.86133L29.5794 8.52795C28.0981 7.54578 26.4734 6.8695 24.7518 6.51823L24.6719 6.91016L24.5919 7.30208C26.2116 7.63256 27.7406 8.26867 29.1374 9.19471L29.3584 8.86133ZM24.6719 6.91016L24.7518 6.51821C24.6112 6.48956 24.5094 6.36521 24.5094 6.2207H24.1094H23.7094C23.7094 6.74444 24.0778 7.1973 24.592 7.3021L24.6719 6.91016ZM24.1094 6.2207H24.5094V3.40625H24.1094H23.7094V6.2207H24.1094ZM24.1094 3.40625V3.00625H19.8906V3.40625V3.80625H24.1094V3.40625ZM19.8906 3.40625H19.4906V6.2207H19.8906H20.2906V3.40625H19.8906ZM22 9.45312V9.85313C27.5946 9.85313 32.1469 14.4054 32.1469 20H32.5469H32.9469C32.9469 13.9635 28.0365 9.05312 22 9.05312V9.45312ZM32.5469 20H32.1469C32.1469 25.5946 27.5946 30.1469 22 30.1469V30.5469V30.9469C28.0365 30.9469 32.9469 26.0365 32.9469 20H32.5469ZM22 30.5469V30.1469C16.4054 30.1469 11.8531 25.5946 11.8531 20H11.4531H11.0531C11.0531 26.0365 15.9635 30.9469 22 30.9469V30.5469ZM11.4531 20H11.8531C11.8531 14.4054 16.4054 9.85313 22 9.85313V9.45312V9.05312C15.9635 9.05312 11.0531 13.9635 11.0531 20H11.4531ZM22 10.8594V10.4594C16.7389 10.4594 12.4594 14.7389 12.4594 20H12.8594H13.2594C13.2594 15.1807 17.1808 11.2594 22 11.2594V10.8594ZM12.8594 20H12.4594C12.4594 25.2611 16.7389 29.5406 22 29.5406V29.1406V28.7406C17.1808 28.7406 13.2594 24.8193 13.2594 20H12.8594ZM22 29.1406V29.5406C27.2611 29.5406 31.5406 25.2611 31.5406 20H31.1406H30.7406C30.7406 24.8193 26.8192 28.7406 22 28.7406V29.1406ZM31.1406 20H31.5406C31.5406 14.7389 27.2611 10.4594 22 10.4594V10.8594V11.2594C26.8192 11.2594 30.7406 15.1807 30.7406 20H31.1406ZM27.6299 21.5928L27.7962 21.9565C27.948 21.8871 28.1279 21.9539 28.1977 22.1067L28.5615 21.9404L28.9253 21.7742C28.6724 21.2206 28.0184 20.9753 27.4635 21.229L27.6299 21.5928ZM28.5615 21.9404L28.1977 22.1067C28.4392 22.6351 28.3956 23.2432 28.0785 23.737L28.415 23.9531L28.7516 24.1693C29.2148 23.448 29.2807 22.5519 28.9253 21.7742L28.5615 21.9404ZM28.415 23.9531L28.0785 23.7369C27.7626 24.2287 27.2265 24.5218 26.6415 24.5219L26.6416 24.9219L26.6417 25.3219C27.499 25.3217 28.2886 24.89 28.7516 24.1693L28.415 23.9531ZM26.6416 24.9219V24.5219H21.5879V24.9219V25.3219H26.6416V24.9219ZM21.5879 24.9219L21.305 25.2047L21.5111 25.4108L21.7939 25.1279L22.0768 24.8451L21.8707 24.639L21.5879 24.9219ZM21.7939 25.1279L21.511 25.4107C21.6295 25.5292 21.6294 25.7209 21.5111 25.8392L21.7939 26.1221L22.0768 26.4049C22.5076 25.9741 22.5075 25.2759 22.0768 24.8451L21.7939 25.1279ZM21.7939 26.1221L21.5112 25.8392C21.3927 25.9576 21.201 25.9575 21.0826 25.8392L20.7998 26.1221L20.517 26.405C20.9479 26.8356 21.6459 26.8356 22.0767 26.405L21.7939 26.1221ZM20.7998 26.1221L21.0826 25.8392L19.6696 24.4261L19.3867 24.709L19.1039 24.9918L20.517 26.4049L20.7998 26.1221ZM19.3867 24.709L19.6734 24.43C19.5585 24.312 19.5596 24.1215 19.6767 24.0042L19.3936 23.7217L19.1104 23.4391C18.6857 23.8647 18.679 24.5552 19.1 24.9879L19.3867 24.709ZM19.3936 23.7217L19.6764 24.0045L21.0826 22.5983L20.7998 22.3154L20.517 22.0326L19.1107 23.4388L19.3936 23.7217ZM20.7998 22.3154L21.0826 22.5983C21.201 22.4799 21.3928 22.48 21.5111 22.5983L21.7939 22.3154L22.0767 22.0325C21.646 21.6019 20.9478 21.6019 20.517 22.0325L20.7998 22.3154ZM21.7939 22.3154L21.5111 22.5982C21.6295 22.7167 21.6294 22.9084 21.5111 23.0267L21.7939 23.3096L22.0768 23.5924C22.5076 23.1616 22.5075 22.4634 22.0768 22.0326L21.7939 22.3154ZM21.7939 23.3096L21.5111 23.0267L21.305 23.2328L21.5879 23.5156L21.8707 23.7985L22.0768 23.5924L21.7939 23.3096ZM21.5879 23.5156V23.9156H26.6416V23.5156V23.1156H21.5879V23.5156ZM26.6416 23.5156L26.6417 23.9156C27.0214 23.9155 27.3637 23.729 27.5689 23.4096L27.2324 23.1934L26.8959 22.9771C26.8382 23.0669 26.7496 23.1156 26.6415 23.1156L26.6416 23.5156ZM27.2324 23.1934L27.569 23.4094C27.7732 23.0914 27.8049 22.7035 27.647 22.3581L27.2832 22.5244L26.9194 22.6908C26.9617 22.7831 26.9562 22.8832 26.8958 22.9773L27.2324 23.1934ZM27.2832 22.5244L27.647 22.3582C27.5773 22.2056 27.6445 22.026 27.7963 21.9565L27.6299 21.5928L27.4635 21.229C26.9093 21.4825 26.6665 22.137 26.9194 22.6906L27.2832 22.5244ZM19.2549 15.4756L19.3652 15.8601C19.5265 15.8138 19.697 15.909 19.7421 16.0742L20.1279 15.9688L20.5138 15.8633C20.3526 15.2733 19.7394 14.9204 19.1446 15.0911L19.2549 15.4756ZM20.1279 15.9688L19.7435 16.0792L20.2894 17.9796L20.6738 17.8691L21.0583 17.7587L20.5124 15.8583L20.1279 15.9688ZM20.6738 17.8691L20.2893 17.9793C20.3352 18.1396 20.2424 18.3075 20.0811 18.3538L20.1914 18.7383L20.3018 19.1228C20.8866 18.9549 21.2261 18.3449 21.0584 17.759L20.6738 17.8691ZM20.1914 18.7383L20.0809 18.3538C19.9204 18.4 19.752 18.3076 19.7058 18.1466L19.3213 18.2568L18.9368 18.3671C19.1062 18.9577 19.7212 19.2896 20.3019 19.1227L20.1914 18.7383ZM19.3213 18.2568L19.7059 18.1469L19.6258 17.8667L19.2412 17.9766L18.8566 18.0865L18.9367 18.3667L19.3213 18.2568ZM19.2412 17.9766L18.8915 17.7823L16.3945 22.2774L16.7441 22.4717L17.0938 22.6659L19.5909 18.1708L19.2412 17.9766ZM16.7441 22.4717L16.3944 22.2775C16.1703 22.6811 16.2636 23.0509 16.3372 23.2295L16.707 23.0771L17.0769 22.9248C17.0552 22.8722 17.0317 22.7778 17.0938 22.6659L16.7441 22.4717ZM16.707 23.0771L16.3372 23.2295C16.4652 23.5403 16.7222 23.7786 17.0471 23.8725L17.1582 23.4883L17.2694 23.104C17.1878 23.0804 17.1158 23.0192 17.0769 22.9248L16.707 23.0771ZM17.1582 23.4883L17.0471 23.8725C17.2079 23.919 17.3006 24.0872 17.2543 24.2476L17.6387 24.3584L18.023 24.4692C18.1916 23.8844 17.8541 23.2731 17.2693 23.104L17.1582 23.4883ZM17.6387 24.3584L17.2544 24.2473C17.208 24.4079 17.0397 24.5012 16.8788 24.4546L16.7676 24.8389L16.6564 25.2231C17.2447 25.3934 17.8546 25.0517 18.0229 24.4695L17.6387 24.3584ZM16.7676 24.8389L16.8787 24.4546C16.3804 24.3106 15.9789 23.9503 15.777 23.4608L15.4072 23.6133L15.0374 23.7658C15.331 24.4775 15.921 25.0105 16.6565 25.2231L16.7676 24.8389ZM15.4072 23.6133L15.777 23.4609C15.5784 22.9788 15.6095 22.4408 15.8643 21.9824L15.5146 21.7881L15.165 21.5938C14.7922 22.2647 14.7457 23.0579 15.0374 23.7657L15.4072 23.6133ZM15.5146 21.7881L15.8643 21.9824L18.3614 17.4892L18.0117 17.2949L17.6621 17.1006L15.165 21.5938L15.5146 21.7881ZM18.0117 17.2949L17.9022 16.9102L17.6209 16.9903L17.7305 17.375L17.84 17.7597L18.1213 17.6796L18.0117 17.2949ZM17.7305 17.375L17.6204 16.9904C17.4596 17.0365 17.292 16.9436 17.2459 16.7824L16.8613 16.8926L16.4768 17.0027C16.6445 17.5881 17.2546 17.9272 17.8405 17.7596L17.7305 17.375ZM16.8613 16.8926L17.2459 16.7826C17.1999 16.6219 17.293 16.4541 17.4539 16.408L17.3438 16.0234L17.2336 15.6389C16.6482 15.8066 16.3093 16.4171 16.4767 17.0026L16.8613 16.8926ZM17.3438 16.0234L17.454 16.408L19.3651 15.8601L19.2549 15.4756L19.1447 15.0911L17.2335 15.6389L17.3438 16.0234ZM22.1777 12.3564L22.1445 12.7551C22.712 12.8024 23.2164 13.128 23.4941 13.6279L23.8438 13.4336L24.1934 13.2393C23.7863 12.5066 23.0449 12.0274 22.211 11.9578L22.1777 12.3564ZM23.8438 13.4336L23.4941 13.6278L25.915 17.9862L26.2646 17.792L26.6143 17.5978L24.1934 13.2394L23.8438 13.4336ZM26.2646 17.792L26.6544 17.8819L26.6866 17.7423L26.2969 17.6523L25.9071 17.5624L25.8749 17.702L26.2646 17.792ZM26.2969 17.6523L26.6865 17.7427C26.7242 17.5802 26.8871 17.4781 27.0509 17.5158L27.1406 17.126L27.2303 16.7362C26.6378 16.5998 26.0448 16.9683 25.9072 17.562L26.2969 17.6523ZM27.1406 17.126L27.0505 17.5157C27.2131 17.5533 27.3151 17.7161 27.2773 17.8796L27.667 17.9697L28.0567 18.0598C28.1938 17.4667 27.8247 16.8736 27.2307 16.7363L27.1406 17.126ZM27.667 17.9697L27.2773 17.8796L26.8554 19.7038L27.2451 19.7939L27.6348 19.8841L28.0567 18.0599L27.667 17.9697ZM27.2451 19.7939L26.8462 19.7646C26.8324 19.953 26.6472 20.0857 26.466 20.0438L26.376 20.4336L26.286 20.8233C26.927 20.9713 27.5929 20.5194 27.644 19.8232L27.2451 19.7939ZM26.376 20.4336L26.4658 20.0438L24.5283 19.5975L24.4385 19.9873L24.3487 20.3771L26.2862 20.8234L26.376 20.4336ZM24.4385 19.9873L24.5284 19.5975C24.3653 19.5599 24.2632 19.3966 24.3009 19.2335L23.9111 19.1436L23.5214 19.0536C23.3844 19.6472 23.7548 20.2401 24.3485 20.3771L24.4385 19.9873ZM23.9111 19.1436L24.3009 19.2336C24.3386 19.0701 24.5019 18.9683 24.6648 19.0059L24.7549 18.6162L24.8449 18.2265C24.2508 18.0892 23.6585 18.4603 23.5214 19.0535L23.9111 19.1436ZM24.7549 18.6162L24.6646 19.0059L25.0777 19.1016L25.168 18.7119L25.2582 18.3222L24.8452 18.2265L24.7549 18.6162ZM25.168 18.7119L25.5176 18.5176L22.9639 13.9229L22.6143 14.1172L22.2646 14.3115L24.8183 18.9062L25.168 18.7119ZM22.6143 14.1172L22.9639 13.9229C22.7839 13.5989 22.4641 13.39 22.0937 13.3592L22.0605 13.7578L22.0274 14.1564C22.1289 14.1649 22.2127 14.2181 22.2646 14.3115L22.6143 14.1172ZM22.0605 13.7578L22.0943 13.3592C21.73 13.3284 21.3719 13.4757 21.1425 13.7632L21.4551 14.0127L21.7677 14.2622C21.8247 14.1908 21.9193 14.1473 22.0268 14.1564L22.0605 13.7578ZM21.4551 14.0127L21.1424 13.7632C21.0379 13.8942 20.8469 13.9156 20.7162 13.8113L20.4668 14.124L20.2174 14.4367C20.6938 14.8167 21.388 14.7381 21.7677 14.2622L21.4551 14.0127ZM20.4668 14.124L20.7163 13.8113C20.5854 13.7069 20.5639 13.5161 20.6683 13.385L20.3555 13.1357L20.0427 12.8864C19.6631 13.3626 19.741 14.0567 20.2173 14.4367L20.4668 14.124ZM20.3555 13.1357L20.6682 13.3852C21.0201 12.944 21.5714 12.7071 22.1443 12.755L22.1777 12.3564L22.2111 11.9578C21.3756 11.8879 20.5634 12.2337 20.0428 12.8863L20.3555 13.1357Z" fill="#7F7F7F" mask="url(#path-1-inside-1_312_155)"/>
</svg>
